<?xml version="1.0" encoding="utf-8"?>
<!-- Generator: Adobe Illustrator 21.1.0, SVG Export Plug-In . SVG Version: 6.00 Build 0)  -->
<svg version="1.1" id="Слой_1" xmlns="http://www.w3.org/2000/svg" xmlns:xlink="http://www.w3.org/1999/xlink" x="0px" y="0px"
	 viewBox="0 0 60.6 42" style="enable-background:new 0 0 60.6 42;" xml:space="preserve">
<g id="OsJkku_1_">
	<g>
		<path d="M18.9,35.7c-2.5,1.1-4.8-0.9-4.5-3.4c-1.5,0.1-2.7-0.5-3.3-1.9c-0.6-1.4-0.2-2.7,0.8-3.8c-1.1-0.8-2.1-1.6-3.2-2.3
			c-2.3-1.4-4.5-2.8-6.8-4.2c-0.5-0.3-0.6-0.6-0.3-1.1C4.2,15,6.8,10.8,9.3,6.7c0.7-1.2,1.5-2.4,2.2-3.5c0.3-0.5,0.6-0.6,1.1-0.3
			c2.1,1.3,4.2,2.6,6.3,3.9c0.3,0.2,0.5,0.4,0.7,0.7c0.1,0.2,0.3,0.2,0.5,0.2c0.7-0.1,1.3-0.1,2-0.1c1.1,0,2.2-0.1,3.3-0.1
			c1.4,0.1,2.8,0.2,4.2,0.4c0.2,0,0.3,0,0.5-0.1c1.4-0.5,2.8-0.9,4.2-1c1.3-0.1,2.6,0,4,0c0.5,0,1.1,0.1,1.6,0.1
			c0.2-1.1,1.1-1.5,1.8-2c1.8-1.3,3.7-2.5,5.5-3.7c0.5-0.3,0.8-0.3,1.1,0.2c3.6,5.4,7.2,10.8,10.9,16.3c0.4,0.7,0.4,0.9-0.3,1.3
			c-2,1.4-4.1,2.8-6.1,4.1c-1.2,0.8-2.5,1.4-3.8,2.2c0.2,1,0,2-0.6,2.8c-0.6,0.9-1.5,1.3-2.5,1.4c0.4,1.3,0.3,2.6-0.6,3.7
			c-0.9,1.1-2.1,1.5-3.5,1.1c0.2,1.5-0.3,2.7-1.5,3.6c-1.2,0.9-2.5,0.8-3.8-0.1c0,1-0.3,1.8-0.8,2.5c-1,1.2-2.6,1.5-3.9,0.6
			c-0.6-0.4-1.2-0.9-1.9-1.3c-0.9,1-2,1.6-3.3,1.2c-1.3-0.4-2-1.3-2.3-2.7c-1,0.9-2.1,1.2-3.4,0.7C19.7,38,19,37,18.9,35.7z
			 M25.3,28.1c1.1-0.5,2.2-0.5,3.2,0.3c1.3,1,1.5,2.4,1,4c1.5,0.3,2.5,1.1,2.8,2.6c0.3,1.5-0.3,2.6-1.5,3.5c0.6,0.4,1.2,0.9,1.8,1.3
			c0.4,0.2,0.7,0.4,1.2,0.2c0.9-0.3,1.4-0.9,1.5-1.8c0.1-0.9-0.3-1.6-1-2.2c-0.3-0.2-0.6-0.5-0.9-0.8c-0.1-0.2-0.2-0.5-0.1-0.7
			c0.1-0.2,0.4-0.3,0.6-0.3c0.2,0,0.4,0.1,0.5,0.3c1,0.8,2,1.5,3,2.3c0.5,0.4,1.1,0.4,1.7,0.2c0.8-0.3,1.2-1,1.4-1.8
			c0.2-1-0.1-1.8-1-2.5c-1.2-0.9-2.4-1.8-3.6-2.7c-0.2-0.2-0.4-0.4-0.3-0.7c0.2-0.5,0.6-0.6,1.1-0.2c1.6,1.2,3.2,2.4,4.8,3.6
			c0.3,0.2,0.8,0.4,1.3,0.4c1,0,1.7-0.8,1.9-1.9c0.2-0.9-0.2-2-0.9-2.5c-1.2-0.9-2.5-1.7-3.7-2.6c-0.4-0.3-0.8-0.6-1.2-0.9
			c-0.3-0.2-0.3-0.5-0.1-0.8c0.1-0.3,0.4-0.3,0.7-0.2c0.1,0,0.3,0.1,0.4,0.2c1.6,1.1,3.1,2.2,4.7,3.3c0.4,0.3,0.9,0.5,1.3,0.4
			c1-0.2,1.5-0.8,1.8-1.7c0.3-1,0-1.8-0.7-2.5c-0.7-0.6-1.5-1.2-2.2-1.7c-2.2-1.5-4.4-3.1-6.6-4.6c-1.6-1.1-3.3-2.3-4.9-3.4
			c-0.2-0.1-0.3-0.1-0.4,0c-3,1.8-6.1,3.6-9.1,5.4c-0.9,0.5-1.9,0.6-2.9,0.4c-1.6-0.4-3.1-2.1-2.7-4.2c0.2-1.1,0.7-2.1,1.7-2.6
			c1.6-1,3.3-1.9,4.9-2.8c1-0.5,1.9-1.1,2.9-1.7c-0.2,0-0.4-0.1-0.6-0.1c-1.7,0-3.5,0-5.2,0c-0.5,0-1.1,0.1-1.6,0.1
			c-0.3,0-0.4,0.1-0.4,0.4c0,0.3-0.2,0.5-0.3,0.8c-2.5,4-5,8-7.5,12.1c-0.5,0.8-0.8,1.6-1.6,2.1c0.7,0.5,1.3,0.9,1.9,1.4
			c0.1,0.1,0.3,0.2,0.5,0.3c0.4-0.4,0.9-0.8,1.3-1.2c0.3-0.3,0.7-0.7,1.1-0.9c1.2-0.7,2.7-0.5,3.7,0.5c0.5,0.5,0.8,1.2,0.9,1.9
			C21.7,24.2,24.9,25.1,25.3,28.1z M50.1,23.1c-0.3-0.3-0.5-0.5-0.7-0.8c-0.6-0.8-1.1-1.6-1.7-2.5c-2.1-3.2-4.3-6.3-6.4-9.5
			c-0.5-0.8-1-1.5-1.5-2.3C39.8,8,39.6,8,39.4,7.9c-0.5,0-0.9-0.1-1.4-0.1c-1.3,0-2.7-0.1-4,0c-1.9,0.2-3.8,0.9-5.5,1.8
			c-2.6,1.5-5.2,3-7.9,4.5c-0.9,0.5-1.4,1.5-1.2,2.6c0.3,1.8,2.3,2.8,3.9,1.9c0.7-0.4,1.4-0.8,2.1-1.2c2.5-1.5,4.9-2.9,7.4-4.4
			c0.3-0.2,0.6-0.2,1,0.1c0.5,0.4,1.1,0.7,1.6,1.1c3.3,2.3,6.5,4.5,9.8,6.8c1.3,0.9,2.6,1.8,4,2.7C49.4,23.6,49.8,23.3,50.1,23.1z
			 M47.5,2.3c-0.1,0-0.1,0.1-0.2,0.1c-1.9,1.3-3.8,2.6-5.7,3.9c-0.8,0.5-0.9,1.1-0.4,1.9c1.3,2,2.7,3.9,4,5.9
			c1.7,2.5,3.4,5.1,5.2,7.6c0.4,0.6,1.1,0.7,1.7,0.3c1.2-0.8,2.4-1.6,3.6-2.4c0.8-0.5,1.5-1,2.3-1.6C54.5,12.7,51,7.5,47.5,2.3z
			 M2.9,19.4c2,1.2,3.9,2.4,5.8,3.6c0.8,0.5,1.3,0.3,1.8-0.4c2.7-4.3,5.4-8.7,8.1-13C19,8.7,18.8,8,18,7.5c-1.1-0.6-2.1-1.3-3.2-2
			c-0.8-0.5-1.7-1-2.5-1.5C9.2,9.2,6,14.3,2.9,19.4z M26.7,29c-0.6,0-1,0.2-1.4,0.6c-1.5,1.5-3,2.9-4.4,4.4
			c-0.5,0.5-0.7,1.1-0.7,1.8c0.1,0.8,0.5,1.4,1.3,1.7c0.7,0.3,1.4,0.1,1.9-0.4c1.5-1.5,3.1-3,4.6-4.5c0.6-0.6,0.8-1.5,0.5-2.3
			C28.1,29.5,27.5,29,26.7,29z M24,28.5c0.1-0.9-0.4-1.6-1.1-2c-0.8-0.3-1.5-0.2-2.1,0.4c-1.5,1.5-3,2.9-4.5,4.4
			c-0.6,0.5-0.8,1.2-0.7,2c0.1,0.7,0.6,1.2,1.2,1.5c0.6,0.2,1.3,0.2,1.8-0.3c1.6-1.5,3.2-3.1,4.8-4.6C23.8,29.4,24,29,24,28.5z
			 M14,31.1c0.5,0,0.9-0.2,1.3-0.6c0.8-0.8,1.6-1.6,2.4-2.3c0.9-0.8,1.1-1.6,0.7-2.6c-0.5-1.1-2-1.5-2.8-0.7c-1,1-2.1,1.9-3.1,2.9
			c-0.6,0.5-0.7,1.5-0.3,2.3C12.5,30.6,13.2,31.2,14,31.1z M27.4,39.5c0.3-0.1,0.7-0.2,1-0.4c0.8-0.7,1.6-1.4,2.3-2.1
			c0.6-0.6,0.7-1.7,0.2-2.4c-0.5-0.8-1.3-1.1-2.1-0.8c-0.3,0.1-0.6,0.3-0.9,0.6c-0.7,0.6-1.4,1.3-2,2c-0.5,0.6-0.5,1.4-0.1,2.1
			C26,39,26.6,39.4,27.4,39.5z"/>
		<path d="M8.4,16.4c1.2-0.1,2.4,0.9,2.4,2.4c0,1.3-1.1,2.4-2.4,2.4c-1.2,0-2.4-1-2.4-2.4C6,17.4,7.1,16.4,8.4,16.4z M6.8,18.8
			c-0.1,0.9,0.7,1.6,1.6,1.6c0.9,0,1.6-0.7,1.6-1.6c0-0.9-0.7-1.6-1.6-1.6C7.6,17.2,6.7,17.9,6.8,18.8z"/>
	</g>
</g>
</svg>
